<?xml version="1.0" encoding="utf-8"?>
<!-- Generator: Adobe Illustrator 15.0.2, SVG Export Plug-In . SVG Version: 6.00 Build 0)  -->
<!DOCTYPE svg PUBLIC "-//W3C//DTD SVG 1.1//EN" "http://www.w3.org/Graphics/SVG/1.1/DTD/svg11.dtd">
<svg version="1.1" id="Ebene_1" xmlns="http://www.w3.org/2000/svg" xmlns:xlink="http://www.w3.org/1999/xlink" x="0px" y="0px"
	 width="595.28px" height="841.89px" viewBox="0 0 595.28 841.89" enable-background="new 0 0 595.28 841.89" xml:space="preserve">
<path fill-rule="evenodd" clip-rule="evenodd" fill="#FFFFFF" d="M367.887,248.719c1.568,0,17.312-0.433,23.77,4.048
	c6.386,4.438,1.827,21.922,1.094,22.667c-2.145,2.178,45.135,0.864,46.048,0.997c0.916,0.129,20.408,20.49,18.329,21.412
	c-7.981,3.547-63.93,5.635-65.366,6.417c-1.437,0.786-4.219,32.782-4.219,34.917c0,1.949,41.079-29.618,62.003-30.571
	c14.307-0.65,19.818,14.027,20.951,18.13c1.262,4.582,4.903,16.698,3.577,35.67c-0.621,8.897-6.649,43.858-25.215,59.063
	c-4.828,3.952-15.147,8.751-22.87,4.182c-6.61-3.918-35.217-26.924-34.332-27.019c4.969-0.534,13.192,2.49,17.088-0.163
	c5.898-4.013,6.334-29.81,7.188-38.676c0.141-1.484-19.6,4.969-23.126,7.45c-3.527,2.482-8.069,7.434-9.258,11.871
	c-1.251,4.685,1.015,11.711-1.003,11.711h-29.319c-2.015,0,0.247-7.026-1.002-11.711c-1.186-4.438-5.728-9.389-9.255-11.871
	c-3.528-2.481-23.27-8.934-23.126-7.45c0.855,8.867,1.288,34.663,7.185,38.676c3.899,2.653,12.122-0.371,17.091,0.163
	c0.887,0.095-27.723,23.101-34.335,27.019c-7.716,4.569-18.039-0.23-22.865-4.182c-18.564-15.204-24.595-50.165-25.219-59.063
	c-1.322-18.973,1.216-28.23,3.5-35.67c1.265-4.117,6.722-18.78,21.03-18.13c20.926,0.953,61.999,32.521,61.999,30.571
	c0-2.136-2.776-34.132-4.214-34.917c-1.437-0.783-57.385-2.871-65.369-6.417c-2.078-0.921,17.416-21.283,18.333-21.412
	c0.915-0.132,48.191,1.182,46.049-0.997c-0.735-0.745-5.296-18.229,1.09-22.667C350.575,248.287,366.32,248.719,367.887,248.719
	L367.887,248.719z"/>
<path fill-rule="evenodd" clip-rule="evenodd" fill="#FFFFFF" d="M367.887,396.625c0,0-1.712-0.05,13.546-0.056
	c2.85,0,32.991,45.37,35.593,48.839c1.107,1.473-8.057,4.896-10.839,4.771c-5.031-0.23-18.347-13.146-19.942-14.743
	c-1.602-1.602,2.445,19.223,1.298,20.595c-1.138,1.371-19.655,2.383-19.655,2.383s-18.511-1.012-19.657-2.383
	c-1.143-1.372,2.902-22.196,1.303-20.595c-1.601,1.597-14.914,14.513-19.945,14.743c-2.777,0.124-11.945-3.299-10.839-4.771
	c2.602-3.469,32.702-48.884,35.554-48.839C367.887,396.569,367.887,396.625,367.887,396.625L367.887,396.625z"/>
</svg>
